<svg version="1.1" xmlns="http://www.w3.org/2000/svg"
xmlns:xlink="http://www.w3.org/1999/xlink">
  <g id='mail'><rect x="2.5" y="5" width="19" height="14" fill="none" stroke-miterlimit="10"/><polyline points="2.5 5 12 12 21.5 5" fill="none" stroke-miterlimit="10"/></g>
  <g id='lock'><rect x="3.5" y="10.5" width="17" height="11" fill="none"/><line x1="12" y1="14.5" x2="12" y2="17" fill="none"/><path d="M18,10.5V8A6,6,0,0,0,6,8v2.5" fill="none"/></g>
  <g id='instagram'><path d="M21.94,7.88a7.59,7.59,0,0,0-.46-2.43,4.85,4.85,0,0,0-1.16-1.77,4.85,4.85,0,0,0-1.77-1.16,7.59,7.59,0,0,0-2.43-.46C15.06,2,14.72,2,12,2s-3.06,0-4.12.06a7.59,7.59,0,0,0-2.43.46A4.85,4.85,0,0,0,3.68,3.68,4.7,4.7,0,0,0,2.53,5.45a7.3,7.3,0,0,0-.47,2.43C2,8.94,2,9.28,2,12s0,3.06.06,4.12a7.3,7.3,0,0,0,.47,2.43,4.7,4.7,0,0,0,1.15,1.77,4.85,4.85,0,0,0,1.77,1.16,7.59,7.59,0,0,0,2.43.46C8.94,22,9.28,22,12,22s3.06,0,4.12-.06a7.59,7.59,0,0,0,2.43-.46,5.19,5.19,0,0,0,2.93-2.93,7.59,7.59,0,0,0,.46-2.43c0-1.06.06-1.4.06-4.12S22,8.94,21.94,7.88ZM20.14,16a5.61,5.61,0,0,1-.34,1.86,3.33,3.33,0,0,1-1.9,1.9,5.61,5.61,0,0,1-1.86.34c-1,.05-1.37.06-4,.06s-3,0-4-.06A5.61,5.61,0,0,1,6.1,19.8a3.33,3.33,0,0,1-1.9-1.9A5.61,5.61,0,0,1,3.86,16c0-1-.06-1.37-.06-4s0-3,.06-4A5.61,5.61,0,0,1,4.2,6.1,3.33,3.33,0,0,1,6.1,4.2,5.61,5.61,0,0,1,8,3.86c1,0,1.37-.06,4-.06s3,0,4,.06a5.61,5.61,0,0,1,1.86.34,3.33,3.33,0,0,1,1.9,1.9A5.61,5.61,0,0,1,20.14,8c.05,1,.06,1.37.06,4S20.19,15,20.14,16Z"/><path d="M12,6.86A5.14,5.14,0,1,0,17.14,12,5.14,5.14,0,0,0,12,6.86Zm0,8.47A3.33,3.33,0,1,1,15.33,12,3.33,3.33,0,0,1,12,15.33Z"/><path d="M17.34,5.46a1.2,1.2,0,1,0,1.2,1.2A1.2,1.2,0,0,0,17.34,5.46Z"/></g>
  <g id='facebook-1'><path d="M22.06,11.987a10.061,10.061,0,1,0-11.633,9.939V14.9H7.872V11.987h2.555V9.771a3.551,3.551,0,0,1,3.8-3.915,15.427,15.427,0,0,1,2.252.2V8.529H15.211a1.454,1.454,0,0,0-1.64,1.571v1.887h2.791L15.915,14.9H13.571v7.03A10.064,10.064,0,0,0,22.06,11.987Z"/></g>
  <g id='twitter'><path d="M22.459,5.5a8.763,8.763,0,0,1-2.471.678A4.337,4.337,0,0,0,21.88,3.794,8.907,8.907,0,0,1,19.144,4.83,4.3,4.3,0,0,0,11.7,7.768a4.446,4.446,0,0,0,.111.983A12.194,12.194,0,0,1,2.935,4.266a4.226,4.226,0,0,0-.582,2.166,4.307,4.307,0,0,0,1.914,3.584,4.292,4.292,0,0,1-1.949-.539V9.53A4.306,4.306,0,0,0,5.77,13.753a4.342,4.342,0,0,1-1.935.075,4.318,4.318,0,0,0,4.028,2.989,8.629,8.629,0,0,1-5.339,1.842A9.277,9.277,0,0,1,1.5,18.6a12.254,12.254,0,0,0,6.613,1.932A12.159,12.159,0,0,0,20.361,8.3c0-.183,0-.367-.013-.551A8.69,8.69,0,0,0,22.5,5.516Z"/></g>
  <g id='facebook-2'><path d="M9.833,22V13.2H6.669V9.6H9.833V6.849C9.833,3.726,11.694,2,14.541,2a19.194,19.194,0,0,1,2.79.243V5.311H15.76a1.8,1.8,0,0,0-2.032,1.946V9.6h3.457l-.552,3.6h-2.9V22Z"/></g>
  <g id='cross'><line x1="19" y1="5" x2="5" y2="19" fill="none" stroke-miterlimit="10"/><line x1="5" y1="5" x2="19" y2="19" fill="none" stroke-miterlimit="10"/></g>
  <g id='user--badge'><circle cx="12" cy="7.5" r="4" fill="none"/><polyline points="4.5 21 4.5 17 7.5 14 12 15.5 16.5 14 19.5 17 19.5 21" fill="none"/><line class="point" x1="24" x2="34" y1="6" y2="6" /><line class="point" x1="24" x2="34" y1="11" y2="11"/><rect rx="3" ry="3" x="0" y="0" width="40" height="24" fill="none"/></g>
  <g id='arrow-left'><polyline points="10 5 3 12 10 19" fill="none" stroke-miterlimit="10"/><line x1="3" y1="12" x2="22" y2="12" fill="none" stroke-miterlimit="10"/></g>
  <g id='arrow-right'><polyline points="14 19 21 12 14 5" fill="none" stroke-miterlimit="10"/><line x1="21" y1="12" x2="2" y2="12" fill="none" stroke-miterlimit="10"/></g>
</svg>
